<?xml version="1.0" encoding="UTF-8"?>
<svg width="185px" height="48px" viewBox="0 0 185 48" version="1.1" xmlns="http://www.w3.org/2000/svg" xmlns:xlink="http://www.w3.org/1999/xlink">
    <!-- Generator: Sketch 47.1 (45422) - http://www.bohemiancoding.com/sketch -->
    <title>Group 5</title>
    <desc>Created with Sketch.</desc>
    <defs></defs>
    <g id="home" stroke="none" stroke-width="1" fill="none" fill-rule="evenodd">
        <g id="Artboard" transform="translate(-113.000000, -159.000000)">
            <g id="Group-5" transform="translate(113.000000, 159.000000)">
                <g id="Group-4">
                    <path d="M11.5243722,31.2716927 L9.71935007,36.7339972 C9.53421867,37.2802303 9.47636597,37.6671397 9.54579025,37.8947368 C9.61521453,38.122334 9.85819585,38.5320027 10.2747415,39.1237553 L16.4534712,47.8634424 L16.4534712,48 L0,48 L0,47.8634424 L6.66469719,39.1237553 C7.40522281,38.1678473 7.93746761,37.2119536 8.26144756,36.2560455 L17.9113737,7.16927454 C18.142788,6.5320025 18.2353523,6.08819471 18.1890694,5.83783784 C18.1427866,5.58748097 17.9113758,5.23471067 17.4948301,4.77951636 L13.3988183,0.13655761 L13.3988183,0 L29.7134417,0 L42.6957164,40.4893314 C42.9271306,41.2631618 43.3899522,42.1962961 44.084195,43.2887624 L47,47.8634424 L47,48 L26.450517,48 L26.450517,47.8634424 L29.7828656,43.2887624 C30.1068455,42.8335681 30.1531277,42.219065 29.9217134,41.4452347 L26.6587888,31.2716927 L11.5243722,31.2716927 Z M19.2304284,7.78378378 L11.9409158,29.9061166 L26.2422452,29.9061166 L19.2304284,7.78378378 Z" id="A" fill="#000000"></path>
                    <ellipse id="Oval-2" fill="#33CC33" cx="6.26666667" cy="6.19354839" rx="6.26666667" ry="6.19354839"></ellipse>
                </g>
                <path d="M68.8633895,28.9378238 C68.8633895,29.1243533 68.9257877,29.2735746 69.0505859,29.3854922 L70.2860817,30.5606218 L70.2860817,30.5979275 L64.0524436,30.5979275 L64.0524436,30.5606218 L65.306659,29.3854922 C65.4189774,29.2735746 65.4751358,29.1243533 65.4751358,28.9378238 L65.4751358,21.4393782 C65.4751358,21.0663194 65.4938552,20.6932661 65.5312947,20.3202073 L61.3006573,30.7471503 L61.2632181,30.7471503 L56.8828237,21.1595855 C56.6956264,20.7740913 56.5770699,20.5005189 56.5271506,20.3388601 L56.5271506,27.4642487 C56.5271506,27.6507781 56.6082682,27.8559574 56.7705059,28.0797927 L58.6611889,30.5606218 L58.6611889,30.5979275 L54,30.5979275 L54,30.5606218 L55.8906831,28.0797927 C56.0529207,27.8559574 56.1340383,27.6507781 56.1340383,27.4642487 L56.1340383,20.0777202 C56.1340383,19.8538849 56.07788,19.6735758 55.9655616,19.5367876 L54.4305516,17.5222798 L54.4305516,17.4849741 L58.9045442,17.4849741 L62.8169477,25.9906736 L66.2613604,17.4849741 L70.2860817,17.4849741 L70.2860817,17.5222798 L69.0505859,18.8839378 C68.9257877,19.0082908 68.8633895,19.1637296 68.8633895,19.3502591 L68.8633895,28.9378238 Z M80.4508431,21.3647668 L80.4508431,29.1803109 C80.4508431,29.3917109 80.5070014,29.5471498 80.6193198,29.6466321 L81.5553015,30.5606218 L81.5553015,30.5979275 L77.3808231,30.5979275 L77.3808231,28.6020725 C77.1437065,29.2611432 76.7755574,29.7834178 76.2763647,30.1689119 C75.7771719,30.5544061 75.1906293,30.7471503 74.5167191,30.7471503 C73.5932125,30.7471503 72.8881133,30.4176199 72.4014004,29.7585492 C71.9146875,29.0994786 71.6713347,28.1357576 71.6713347,26.8673575 C71.6713347,26.1585457 71.6838143,24.7969013 71.7087739,22.7823834 C71.7087739,22.595854 71.6526156,22.4466327 71.5402972,22.334715 L70.6230352,21.4020725 L70.6230352,21.3647668 L74.7600743,21.3647668 L74.7413547,23.826943 L74.7413547,26.438342 C74.7413547,27.3461185 74.8349519,28.0362671 75.0221492,28.5088083 C75.2093465,28.9813495 75.5462965,29.2176166 76.0330094,29.2176166 C76.544682,29.2176166 76.9939487,28.9378266 77.3808231,28.3782383 L77.3808231,22.8010363 C77.3808231,22.6145068 77.3246648,22.459068 77.2123464,22.334715 L76.2950843,21.4020725 L76.2950843,21.3647668 L80.4508431,21.3647668 Z M87.4894256,25.0580311 L90.1850529,29.0683938 C90.2724116,29.1927467 90.4471264,29.4103611 90.7092026,29.7212435 L91.4392684,30.5606218 L91.4392684,30.5979275 L86.3288082,30.5979275 L86.3288082,30.5606218 L87.0401543,29.7025907 C87.1399929,29.5782377 87.1337531,29.4227989 87.0214347,29.2362694 L85.5800229,27.1098446 L84.4194055,28.546114 C84.319567,28.6829022 84.2634087,28.7761656 84.2509288,28.8259067 C84.238449,28.8756479 84.2758879,28.9689112 84.3632466,29.1056995 L85.317948,30.5606218 L85.317948,30.5979275 L81.5553015,30.5979275 L81.5553015,30.5606218 L83.5395827,28.9005181 C83.8266186,28.6642475 84.0886908,28.3968927 84.3258074,28.0984456 L85.3741069,26.811399 L82.7720777,22.9316062 C82.6098401,22.6953356 82.4226456,22.4590685 82.2104887,22.2227979 L81.5178622,21.4020725 L81.5178622,21.3647668 L86.6096027,21.3647668 L86.6096027,21.4020725 L85.8982566,22.2787565 C85.7859383,22.4031094 85.7921781,22.5523307 85.9169763,22.7264249 L87.2835096,24.7595855 L88.3505287,23.4165803 C88.4503673,23.2797921 88.5065256,23.1865287 88.5190054,23.1367876 C88.5314852,23.0870464 88.4940464,23.0000006 88.4066876,22.8756477 L87.4519863,21.4020725 L87.4519863,21.3647668 L91.2333524,21.3647668 L91.2333524,21.4020725 L89.2303515,23.0621762 C88.993235,23.2611409 88.7311627,23.5284957 88.4441269,23.8642487 L87.4894256,25.0580311 Z M101.042441,21.3647668 L101.042441,29.1803109 C101.042441,29.3917109 101.098599,29.5471498 101.210917,29.6466321 L102.146899,30.5606218 L102.146899,30.5979275 L97.9724207,30.5979275 L97.9724207,28.6020725 C97.7353041,29.2611432 97.367155,29.7834178 96.8679623,30.1689119 C96.3687695,30.5544061 95.7822269,30.7471503 95.1083167,30.7471503 C94.1848101,30.7471503 93.4797109,30.4176199 92.992998,29.7585492 C92.5062851,29.0994786 92.2629323,28.1357576 92.2629323,26.8673575 C92.2629323,26.1585457 92.2754119,24.7969013 92.3003715,22.7823834 C92.3003715,22.595854 92.2442132,22.4466327 92.1318948,22.334715 L91.2146328,21.4020725 L91.2146328,21.3647668 L95.3516719,21.3647668 L95.3329523,23.826943 L95.3329523,26.438342 C95.3329523,27.3461185 95.4265495,28.0362671 95.6137468,28.5088083 C95.8009441,28.9813495 96.1378941,29.2176166 96.624607,29.2176166 C97.1362796,29.2176166 97.5855463,28.9378266 97.9724207,28.3782383 L97.9724207,22.8010363 C97.9724207,22.6145068 97.9162624,22.459068 97.803944,22.334715 L96.8866819,21.4020725 L96.8866819,21.3647668 L101.042441,21.3647668 Z M103.082881,29.3295337 C103.082881,28.9067336 103.229516,28.5554418 103.522792,28.2756477 C103.816068,27.9958535 104.168618,27.8559585 104.580452,27.8559585 C105.004765,27.8559585 105.363555,27.9927447 105.656831,28.2663212 C105.950106,28.5398977 106.096742,28.8942983 106.096742,29.3295337 C106.096742,29.7398984 105.950106,30.0787551 105.656831,30.346114 C105.363555,30.6134728 105.004765,30.7471503 104.580452,30.7471503 C104.168618,30.7471503 103.816068,30.6134728 103.522792,30.346114 C103.229516,30.0787551 103.082881,29.7398984 103.082881,29.3295337 Z M109.616033,26.0279793 L109.129323,27.5202073 C109.079403,27.6694308 109.063804,27.7751292 109.082524,27.8373057 C109.101243,27.8994822 109.166761,28.0113982 109.27908,28.173057 L110.945127,30.5606218 L110.945127,30.5979275 L106.508574,30.5979275 L106.508574,30.5606218 L108.305659,28.173057 C108.505336,27.9119158 108.648852,27.6507785 108.73621,27.3896373 L111.338239,19.4435233 C111.400639,19.2694292 111.425598,19.1481869 111.413118,19.0797927 C111.400638,19.0113986 111.33824,18.9150265 111.225922,18.7906736 L110.121463,17.5222798 L110.121463,17.4849741 L114.520577,17.4849741 L118.021149,28.546114 C118.083548,28.757514 118.208344,29.0124337 118.395542,29.3108808 L119.181766,30.5606218 L119.181766,30.5979275 L113.640755,30.5979275 L113.640755,30.5606218 L114.539297,29.3108808 C114.626656,29.1865279 114.639135,29.0186539 114.576736,28.8072539 L113.696913,26.0279793 L109.616033,26.0279793 Z M111.693913,19.611399 L109.728351,25.6549223 L113.584596,25.6549223 L111.693913,19.611399 Z M123.880394,30.7471503 C122.669852,30.7471503 121.640282,30.3430092 120.791655,29.534715 C119.943027,28.7264208 119.51872,27.5761733 119.51872,26.0839378 C119.51872,25.2259024 119.662235,24.4704696 119.949271,23.8176166 C120.236307,23.1647636 120.623176,22.6549241 121.109889,22.2880829 C121.596601,21.9212417 122.123866,21.6507781 122.691698,21.4766839 C123.259529,21.3025898 123.861672,21.215544 124.498142,21.215544 C125.496528,21.215544 126.557296,21.4020707 127.68048,21.7751295 L126.482424,24.9834197 L126.444984,24.9834197 L125.003572,21.7937824 C124.966133,21.6943 124.928694,21.6321245 124.891255,21.6072539 C124.853815,21.5823833 124.778937,21.5699482 124.666619,21.5699482 L124.573021,21.5699482 C123.387438,21.5699482 122.794656,22.7761537 122.794656,25.188601 C122.794656,26.5067423 123.034889,27.4704633 123.515362,28.0797927 C123.995835,28.6891222 124.597977,28.9937824 125.321806,28.9937824 C126.320192,28.9937824 127.087689,28.4839429 127.624321,27.4642487 L127.661761,27.4642487 C127.499523,28.4963782 127.093935,29.3015515 126.444984,29.8797927 C125.796034,30.458034 124.941179,30.7471503 123.880394,30.7471503 Z M136.497428,24.9834197 C136.497428,25.0580315 136.494308,25.1854913 136.488068,25.3658031 C136.481828,25.5461149 136.478708,25.642487 136.478708,25.6549223 L136.36639,28.3036269 C136.328951,29.0248741 136.497426,29.3854922 136.871821,29.3854922 C137.108937,29.3854922 137.283652,29.2735762 137.39597,29.0497409 L137.43341,29.0497409 C137.43341,29.2984468 137.383491,29.5222788 137.283652,29.7212435 C136.946697,30.4051848 136.335195,30.7471503 135.449128,30.7471503 C134.887536,30.7471503 134.41331,30.5886026 134.026436,30.2715026 C133.639562,29.9544026 133.433648,29.5098474 133.408688,28.9378238 C133.221491,29.4849768 132.90014,29.9233144 132.444627,30.2528497 C131.989114,30.5823851 131.461849,30.7471503 130.862818,30.7471503 C130.138988,30.7471503 129.533726,30.513992 129.047013,30.0476684 C128.560301,29.5813448 128.316948,28.9378279 128.316948,28.1170984 C128.316948,27.2466278 128.632058,26.559588 129.262289,26.0559585 C129.89252,25.5523291 130.625698,25.3005181 131.461846,25.3005181 C132.310474,25.3005181 132.971894,25.4683921 133.446127,25.8041451 L133.483567,23.8082902 L133.483567,23.7150259 C133.483567,22.2849669 133.02806,21.5699482 132.117033,21.5699482 C131.929836,21.5699482 131.8144,21.5823833 131.77072,21.6072539 C131.727041,21.6321245 131.674002,21.6943 131.611603,21.7937824 L130.095313,24.5917098 L130.057874,24.5917098 L128.878537,21.9243523 C130.201397,21.4518111 131.46184,21.215544 132.659903,21.215544 C133.982764,21.215544 134.949935,21.5015515 135.561446,22.0735751 C136.185437,22.658034 136.497428,23.6279725 136.497428,24.9834197 Z M132.753501,25.8787565 C132.279268,25.8787565 131.907999,26.0590656 131.639683,26.4196891 C131.371367,26.7803127 131.237211,27.2404117 131.237211,27.8 C131.237211,28.2974118 131.340168,28.686009 131.546085,28.9658031 C131.752002,29.2455973 132.017194,29.3854922 132.341669,29.3854922 C132.765983,29.3854922 133.121652,29.1678778 133.408688,28.7326425 L133.408688,28.7139896 L133.446127,25.9906736 C133.221491,25.9160618 132.990618,25.8787565 132.753501,25.8787565 Z M147.485853,17 L147.485853,29.1989637 C147.485853,29.3979285 147.542011,29.5471498 147.65433,29.6466321 L148.590312,30.5606218 L148.590312,30.5979275 L144.434553,30.5979275 L144.434553,28.8445596 C143.885441,30.1129597 142.968188,30.7471503 141.682767,30.7471503 C140.584542,30.7471503 139.695369,30.3305741 139.015219,29.4974093 C138.335069,28.6642445 137.994999,27.5015619 137.994999,26.0093264 C137.994999,24.5792675 138.372507,23.4228023 139.127536,22.5398964 C139.882565,21.6569904 140.846617,21.215544 142.01972,21.215544 C143.180343,21.215544 143.985279,21.7129484 144.434553,22.707772 L144.434553,18.8466321 C144.434553,18.6476674 144.372155,18.4922285 144.247356,18.3803109 L143.348814,17.5222798 L143.348814,17.4849741 L147.485853,17 Z M143.124178,29.3481865 C142.550107,29.3481865 142.09148,29.0746141 141.748285,28.5274611 C141.40509,27.9803081 141.233495,27.1098505 141.233495,25.9160622 C141.233495,24.6600973 141.42069,23.7430081 141.795084,23.1647668 C142.169479,22.5865256 142.643705,22.2974093 143.217777,22.2974093 C143.729449,22.2974093 144.135037,22.4901535 144.434553,22.8756477 L144.434553,28.6393782 C144.072638,29.1119195 143.635851,29.3481865 143.124178,29.3481865 Z M157.912689,25.561658 L152.296799,25.561658 L152.296799,25.5989637 C152.296799,26.7430109 152.546392,27.5979246 153.045584,28.1637306 C153.544777,28.7295365 154.187478,29.0124352 154.973707,29.0124352 C156.296568,29.0124352 157.24502,28.4404202 157.819091,27.2963731 L157.85653,27.2963731 C157.382297,29.5969027 156.003298,30.7471503 153.719491,30.7471503 C152.43407,30.7471503 151.348342,30.3492268 150.462275,29.5533679 C149.576208,28.757509 149.133181,27.5886087 149.133181,26.0466321 C149.133181,24.4176084 149.576208,23.2051853 150.462275,22.4093264 C151.348342,21.6134675 152.471509,21.215544 153.831809,21.215544 C154.355961,21.215544 154.848907,21.2839371 155.31066,21.4207254 C155.772413,21.5575136 156.206081,21.7689105 156.611675,22.0549223 C157.017269,22.3409341 157.338619,22.7481839 157.575736,23.2766839 C157.812852,23.805184 157.931409,24.4300482 157.931409,25.1512953 C157.931409,25.2756483 157.925169,25.4124345 157.912689,25.561658 Z M153.79437,21.5699482 C153.307657,21.5699482 152.939508,21.8528469 152.689911,22.4186528 C152.440315,22.9844588 152.309279,23.9202007 152.296799,25.2259067 L155.048585,25.2259067 C155.061065,25.0642479 155.067305,24.8777213 155.067305,24.6663212 C155.067305,23.5098388 154.958108,22.7046655 154.739711,22.2507772 C154.521315,21.7968889 154.206204,21.5699482 153.79437,21.5699482 Z M163.020877,23.3884901 C162.970295,23.4493636 162.921133,23.5146856 162.873392,23.584456 L162.873392,29.2549223 C162.873392,29.453887 162.929551,29.6031083 163.041869,29.7025907 L163.959131,30.5606218 L163.959131,30.5979275 L158.717634,30.5979275 L158.717634,30.5606218 L159.634896,29.7025907 C159.747214,29.6031083 159.803372,29.453887 159.803372,29.2549223 L159.803372,22.8010363 C159.803372,22.6145068 159.747214,22.459068 159.634896,22.334715 L158.717634,21.4020725 L158.717634,21.3647668 L162.873392,21.3647668 L162.873392,23.3005453 L163.020877,23.3884901 Z M162.873392,23.3005453 L162.873392,23.3419689 C163.385065,21.9243452 164.377196,21.215544 165.849814,21.215544 C167.260034,21.215544 168.164807,21.9492155 168.564161,23.4165803 C168.788798,22.769945 169.175666,22.2414528 169.724779,21.8310881 C170.273891,21.4207233 170.929071,21.215544 171.69034,21.215544 C172.626326,21.215544 173.343905,21.551292 173.843098,22.2227979 C174.342291,22.8943039 174.591883,23.8704599 174.591883,25.1512953 C174.591883,25.6362719 174.582524,26.3885959 174.563804,27.4082902 C174.545084,28.4279844 174.535724,29.0435223 174.535724,29.2549223 C174.535724,29.4414517 174.598123,29.590673 174.722921,29.7025907 L175.640183,30.5606218 L175.640183,30.5979275 L170.398685,30.5979275 L170.398685,30.5606218 L171.278508,29.7025907 C171.403306,29.5782377 171.465704,29.435234 171.465704,29.2735751 C171.465704,29.2238339 171.475064,28.6829067 171.493784,27.6507772 C171.512504,26.6186477 171.521863,25.9284992 171.521863,25.5803109 C171.521863,24.6476637 171.418906,23.9450801 171.212989,23.4725389 C171.007072,22.9999976 170.629564,22.7637306 170.080452,22.7637306 C169.50638,22.7637306 169.013434,23.0310854 168.6016,23.5658031 C168.713919,24.025909 168.770077,24.5544012 168.770077,25.1512953 C168.770077,25.598966 168.760717,26.3419637 168.741998,27.3803109 C168.723278,28.418658 168.713918,29.0435223 168.713918,29.2549223 C168.713918,29.4414517 168.770077,29.590673 168.882395,29.7025907 L169.818377,30.5606218 L169.818377,30.5979275 L164.558159,30.5979275 L164.558159,30.5606218 L165.456702,29.7025907 C165.56902,29.590673 165.625179,29.4476693 165.625179,29.2735751 C165.625179,29.2362692 165.634538,28.6984508 165.653258,27.6601036 C165.671978,26.6217565 165.681338,25.9284992 165.681338,25.5803109 C165.681338,24.6476637 165.5815,23.9450801 165.381823,23.4725389 C165.182146,22.9999976 164.807757,22.7637306 164.258645,22.7637306 C163.779554,22.7637306 163.366967,22.9719819 163.020877,23.3884901 L162.873392,23.3005453 Z M183.315233,24.4611399 L180.91912,30.2435233 C180.432407,31.4000058 179.895783,32.4321198 179.309231,33.3398964 C178.922357,33.9367905 178.532368,34.362693 178.139254,34.6176166 C177.74614,34.8725401 177.268794,35 176.707202,35 C176.407686,35 176.114415,34.9378245 175.827379,34.8134715 L176.520006,31.5492228 L176.557445,31.5492228 L178.410689,33.3772021 C178.510527,33.4766844 178.585405,33.5264249 178.635324,33.5264249 C178.722683,33.5264249 178.81628,33.4518142 178.916119,33.3025907 C179.165715,32.9544024 179.402828,32.5253912 179.627465,32.015544 L179.739783,31.7170984 L176.257931,22.9129534 C176.195532,22.7512945 176.101935,22.5461152 175.977136,22.2974093 L175.471706,21.4020725 L175.471706,21.3647668 L180.320091,21.3647668 L180.320091,21.4020725 L179.571306,22.4279793 C179.483947,22.5523322 179.471468,22.695336 179.533867,22.8569948 L181.42455,28.0797927 L182.94084,24.4051813 C183.003239,24.2435225 183.037558,24.1284978 183.043798,24.0601036 C183.050038,23.9917095 183.015719,23.8766847 182.94084,23.7150259 L181.798943,21.4020725 L181.798943,21.3647668 L185,21.3647668 L185,21.4020725 L183.783224,23.4911917 C183.620986,23.7523329 183.464991,24.0756457 183.315233,24.4611399 Z" id="Muxu.Academy" fill="#979797"></path>
            </g>
        </g>
    </g>
</svg>