<?xml version="1.0" encoding="UTF-8"?>
<svg width="72px" height="28px" viewBox="0 0 72 28" version="1.1" xmlns="http://www.w3.org/2000/svg" xmlns:xlink="http://www.w3.org/1999/xlink">
    <!-- Generator: Sketch 47.1 (45422) - http://www.bohemiancoding.com/sketch -->
    <title>logo</title>
    <desc>Created with Sketch.</desc>
    <defs></defs>
    <g id="Symbols" stroke="none" stroke-width="1" fill="none" fill-rule="evenodd">
        <g id="component/symbole" transform="translate(-247.000000, -20.000000)">
            <g id="#nav">
                <rect id="bg" fill="#FFFFFF" x="0" y="0" width="1440" height="66"></rect>
                <g id="logo" transform="translate(247.000000, 18.000000)" fill="#000000">
                    <g id="sigle" transform="translate(0.000000, 3.000000)">
                        <path d="M28.692,22.796 C28.692,23.1560018 28.8119988,23.4439989 29.052,23.66 L31.428,25.928 L19.44,26 L21.852,23.66 C22.0680011,23.4439989 22.176,23.1560018 22.176,22.796 L22.176,8.324 C22.176,7.6039964 22.2119996,6.8840036 22.284,6.164 L14.148,26.288 L5.652,7.784 C5.2919982,7.03999628 5.06400048,6.51200156 4.968,6.2 L4.968,19.952 C4.968,20.3120018 5.12399844,20.7079978 5.436,21.14 L9.072,25.928 L0.108,26 L3.744,21.14 C4.05600156,20.7079978 4.212,20.3120018 4.212,19.952 L4.212,5.696 C4.212,5.26399784 4.10400108,4.91600132 3.888,4.652 L0.936,0.764 L9.54,0.692 L17.064,17.108 L23.688,0.692 L31.428,0.692 L29.052,3.392 C28.8119988,3.6320012 28.692,3.9319982 28.692,4.292 L28.692,22.796 Z M36.48,23.552 C36.48,22.7359959 36.7619972,22.0580027 37.326,21.518 C37.8900028,20.9779973 38.567996,20.708 39.36,20.708 C40.1760041,20.708 40.8659972,20.9719974 41.43,21.5 C41.9940028,22.0280026 42.276,22.7119958 42.276,23.552 C42.276,24.344004 41.9940028,24.9979974 41.43,25.514 C40.8659972,26.0300026 40.1760041,26.288 39.36,26.288 C38.567996,26.288 37.8900028,26.0300026 37.326,25.514 C36.7619972,24.9979974 36.48,24.344004 36.48,23.552 Z" id="M."></path>
                    </g>
                    <text id="EST." font-family="SFProDisplay-Black, SF Pro Display" font-size="9" font-weight="700" letter-spacing="5.0625">
                        <tspan x="37" y="9">EST.</tspan>
                    </text>
                    <text id="2017" font-family="SFProDisplay-Black, SF Pro Display" font-size="9" font-weight="700" letter-spacing="5.0625">
                        <tspan x="34.7553711" y="20">2017</tspan>
                    </text>
                </g>
            </g>
        </g>
    </g>
</svg>